<?xml version="1.0" encoding="UTF-8" standalone="no"?>
<svg
   id="Riege_Software"
   data-name="Riege Software"
   viewBox="0 0 1104.6 250"
   version="1.1"
   sodipodi:docname="logo_riege-software-small.svg"
   width="1104.6"
   height="250"
   inkscape:version="1.2.2 (b0a8486, 2022-12-01)"
   xmlns:inkscape="http://www.inkscape.org/namespaces/inkscape"
   xmlns:sodipodi="http://sodipodi.sourceforge.net/DTD/sodipodi-0.dtd"
   xmlns="http://www.w3.org/2000/svg"
   xmlns:svg="http://www.w3.org/2000/svg">
  <defs
     id="defs61" />
  <sodipodi:namedview
     id="namedview59"
     pagecolor="#505050"
     bordercolor="#ffffff"
     borderopacity="1"
     inkscape:showpageshadow="0"
     inkscape:pageopacity="0"
     inkscape:pagecheckerboard="1"
     inkscape:deskcolor="#505050"
     showgrid="false"
     inkscape:zoom="0.21851852"
     inkscape:cx="308.89831"
     inkscape:cy="144.15254"
     inkscape:window-width="1525"
     inkscape:window-height="895"
     inkscape:window-x="51"
     inkscape:window-y="38"
     inkscape:window-maximized="0"
     inkscape:current-layer="Riege_Software" />
  <title
     id="title2">logo_riege-software</title>
  <polygon
     points="449.1,497.8 407.7,497.8 407.7,663.3 449.1,663.3 "
     style="fill:#1a171b"
     id="polygon4"
     transform="translate(-407.7,-415)" />
  <polygon
     points="573.2,621.9 531.9,621.9 531.9,497.8 573.2,497.8 "
     style="fill:#1a171b"
     id="polygon6"
     transform="translate(-407.7,-415)" />
  <polygon
     points="697.4,497.8 614.6,497.8 614.6,456.4 697.4,456.4 "
     style="fill:#616726"
     id="polygon8"
     transform="translate(-407.7,-415)" />
  <polygon
     points="697.4,580.5 614.6,580.5 614.6,539.1 697.4,539.1 "
     style="fill:#616726"
     id="polygon10"
     transform="translate(-407.7,-415)" />
  <polygon
     points="697.4,663.3 614.6,663.3 614.6,621.9 697.4,621.9 "
     style="fill:#616726"
     id="polygon12"
     transform="translate(-407.7,-415)" />
  <polygon
     points="780.2,621.9 738.8,621.9 738.8,497.8 780.2,497.8 "
     style="fill:#a1a150"
     id="polygon14"
     transform="translate(-407.7,-415)" />
  <polygon
     points="862.9,497.7 780.2,497.7 780.2,456.4 862.9,456.4 "
     style="fill:#a1a150"
     id="polygon16"
     transform="translate(-407.7,-415)" />
  <polygon
     points="862.9,663.3 780.2,663.3 780.2,621.9 862.9,621.9 "
     style="fill:#a1a150"
     id="polygon18"
     transform="translate(-407.7,-415)" />
  <polygon
     points="862.9,580.5 862.9,621.9 904.3,621.9 904.3,580.5 904.3,539.4 904.3,539.1 821.5,539.1 821.5,580.5 "
     style="fill:#a1a150"
     id="polygon20"
     transform="translate(-407.7,-415)" />
  <polygon
     points="1028.4,497.7 945.7,497.7 945.7,456.4 1028.4,456.4 "
     style="fill:#c8a700"
     id="polygon22"
     transform="translate(-407.7,-415)" />
  <polygon
     points="1028.4,580.5 945.7,580.5 945.7,539.1 1028.4,539.1 "
     style="fill:#c8a700"
     id="polygon24"
     transform="translate(-407.7,-415)" />
  <polygon
     points="1028.4,663.3 945.7,663.3 945.7,621.9 1028.4,621.9 "
     style="fill:#c8a700"
     id="polygon26"
     transform="translate(-407.7,-415)" />
  <polygon
     points="573.2,456.4 531.9,456.4 531.9,415 573.2,415 "
     style="fill:#1a171b"
     id="polygon28"
     transform="translate(-407.7,-415)" />
  <polygon
     points="531.9,497.8 449.1,497.8 449.1,456.4 531.9,456.4 "
     style="fill:#1a171b"
     id="polygon30"
     transform="translate(-407.7,-415)" />
  <path
     d="m 722.4,187 c -2.2,-6.7 -5.2,-14.8 -16.6,-14.8 -11.4,0 -13.8,8.6 -13.8,12.9 0,8.7 6.8,11.4 18.3,15.8 9.6,3.7 23.5,9 23.5,24.9 0,10.3 -6.9,24.2 -26.4,24.2 -7.1,0 -15.1,-2.1 -20.4,-6.9 -5.3,-4.8 -7.3,-12.1 -8.1,-16.6 l 9.1,-2.6 c 1.3,5.5 4.1,17.7 19.6,17.7 12.5,0 15.8,-8.7 15.8,-14.2 0,-9.8 -8.4,-13.4 -16.3,-16.4 -9.5,-3.7 -13.4,-5.2 -17.7,-9 a 22.9,22.9 0 0 1 -7.2,-16.4 c 0,-10.1 7.3,-21.9 24.4,-21.9 18.7,0 23,14.7 24.7,20.6 z"
     style="fill:#1a171b"
     id="path32" />
  <path
     d="m 757.3,217.7 c 0,7 0.6,24.7 13.4,24.7 12.8,0 13.4,-17.7 13.4,-24.7 0,-7 -0.3,-24.8 -13.4,-24.8 -13.1,0 -13.4,18.6 -13.4,24.8 z m 36.8,-0.7 c 0,10.8 -1.7,33 -23.6,33 -18.9,0 -23.3,-18 -23.3,-32.3 0,-12.4 3,-32.4 23.7,-32.4 20.7,0 23.2,18.8 23.2,31.7 z"
     style="fill:#1a171b"
     id="path34" />
  <path
     d="m 832.1,187.1 v 7.4 h -11.2 v 53.8 h -9 v -53.8 h -8.8 v -7.4 h 8.8 c 0.2,-12.3 0.4,-23.4 16.2,-23.4 a 26.1,26.1 0 0 1 7,0.8 v 7.4 a 17.4,17.4 0 0 0 -4.3,-0.6 c -9.2,0 -9.9,4.4 -9.9,15.8 z"
     style="fill:#1a171b"
     id="path36" />
  <path
     d="m 861.1,171.9 v 15.2 H 873 v 7.4 h -11.9 v 30.8 c 0,11.8 0,16.8 9.4,16.8 a 21.1,21.1 0 0 0 5.5,-0.7 v 7.7 a 43,43 0 0 1 -8.4,0.9 c -15.5,0 -15.5,-9.9 -15.5,-24.7 v -30.8 h -8.9 v -7.4 h 8.9 v -14.3 z"
     style="fill:#1a171b"
     id="path38" />
  <polygon
     points="1322.6,602.1 1329.2,602.1 1340.5,648.5 1351.4,602.1 1359,602.1 1344,663.3 1336.3,663.3 1325.9,620.2 1316.1,663.3 1308,663.3 1292.6,602.1 1301.7,602.1 1312.2,648 "
     style="fill:#1a171b"
     id="polygon40"
     transform="translate(-407.7,-415)" />
  <path
     d="m 989.1,217.1 c -12.6,0 -18.3,4.9 -18.3,14.8 0,6.3 3.1,10.5 10.2,10.5 7.1,0 10.1,-3.4 12.5,-7.8 2.4,-4.4 3,-10.2 2.6,-16.7 a 32.7,32.7 0 0 0 -7,-0.8 z m -25.5,-16 c 0.6,-3 2,-9.1 10,-13.2 a 26.5,26.5 0 0 1 11.7,-2.6 c 7.4,0 13.1,2.6 16.2,6.5 3.1,3.9 3.7,11.9 3.7,18.9 v 18 c 0,12.2 0.1,14.7 1.1,19.6 h -8.7 a 66.7,66.7 0 0 1 -0.7,-10.8 c -2.5,4.8 -6.5,12.5 -17.6,12.5 -11.1,0 -18,-7.1 -18,-18.4 a 21.3,21.3 0 0 1 4.6,-13.6 c 4.6,-5.5 12.1,-7.8 22.2,-7.8 a 55.6,55.6 0 0 1 8,0.5 v -2.6 c 0,-4.4 0,-15.2 -11.4,-15.2 -9.5,0 -11.4,7.1 -12.1,9.7 z"
     style="fill:#1a171b"
     id="path42" />
  <path
     d="m 1033.5,187.1 v 12.8 c 1.7,-4.4 5.9,-15.3 17.6,-14.4 v 10.1 c -10,-1.1 -16.6,5.9 -16.6,21 v 31.7 h -9.1 v -61.2 z"
     style="fill:#1a171b"
     id="path44" />
  <path
     d="m 1094.3,211.4 c 0,-9.2 -2.9,-18.5 -12.5,-18.5 -9.6,0 -12.1,9.8 -12.8,18.5 z m -25.8,7.5 c 0,5.3 -0.1,23.5 14.3,23.5 8.6,0 11,-7.5 12.4,-12.3 l 8.5,2 c -3.8,14.3 -12.6,17.9 -21.5,17.9 -17.4,0 -23.3,-15.4 -23.3,-31.4 0,-23 10.9,-33.3 23.9,-33.3 13,0 21.4,10.6 21.8,33.6 z"
     style="fill:#1a171b"
     id="path46" />
  <path
     d="m 693.9,49.6 v 30.1 h 12.5 c 11.7,0 16.1,-7 16.1,-15.9 0,-11.9 -9.1,-14.2 -15.4,-14.2 z m 14,-8.3 c 1.4,0 10.9,0.1 16.7,4.6 4,3 8,8.9 8,18 0,15 -10.1,20 -13.7,21.7 l 15.6,38.5 H 723.6 L 709.7,88 h -15.8 v 36.1 H 683.8 V 41.3 Z"
     style="fill:#1a171b"
     id="path48" />
  <path
     d="m 760.7,62.9 v 61.2 h -9 V 62.9 Z M 751.3,52.1 V 41.6 h 9.8 v 10.5 z"
     style="fill:#1a171b"
     id="path50" />
  <path
     d="m 814.2,87.2 c 0,-9.1 -2.8,-18.5 -12.5,-18.5 -9.7,0 -12,9.8 -12.8,18.5 z m -25.8,7.5 c 0,5.3 -0.1,23.6 14.3,23.6 8.7,0 11,-7.6 12.4,-12.3 l 8.6,2 c -3.9,14.2 -12.7,17.8 -21.5,17.8 -17.5,0 -23.3,-15.4 -23.3,-31.4 0,-22.9 10.9,-33.2 23.8,-33.2 12.9,0 21.5,10.5 21.8,33.5 z"
     style="fill:#1a171b"
     id="path52" />
  <path
     d="m 850.8,82.5 c 0,10.7 6.4,13.7 10.9,13.7 4.5,0 11.2,-4.6 11.2,-13.7 0,-6.3 -3.1,-13.8 -10.7,-13.8 -10.7,0 -11.4,10.3 -11.4,13.8 z m -3.5,47.3 c 0,8.2 6.5,10.3 15.8,10.3 5.2,0 16,-0.9 16,-10 0,-2.7 -0.8,-6 -5.3,-7.4 -2.3,-0.6 -4.3,-0.7 -21.3,-1.2 -1.8,1.2 -5.2,3.2 -5.2,8.3 z M 886.4,61 a 12.4,12.4 0 0 0 -2.5,-0.2 c -4.7,0 -5.9,3.7 -6.4,7.7 a 22.8,22.8 0 0 1 4.7,13.8 c 0,9 -5.8,20.9 -20.6,20.9 a 26.6,26.6 0 0 1 -7.6,-1.1 c -2.2,0.8 -5.1,1.8 -5.1,5.7 0,5.5 3.5,5.6 16.2,6.2 12.7,0.6 23.3,1.3 23.3,15.7 0,16.7 -20,17.7 -25.9,17.7 -7.9,0 -24.4,-1.6 -24.4,-16 0,-9.2 5.6,-11.3 8.1,-12.1 -2.4,-1.7 -5.7,-4 -5.7,-9.6 0,-5.6 2.8,-9.1 7.9,-11.3 -2.6,-2.5 -7,-6.8 -7,-16.1 0,-12.7 9.9,-21.1 20.4,-21.1 a 21.5,21.5 0 0 1 10.2,2.6 c 2.1,-10.6 7.2,-10.6 14.4,-10.4 z"
     style="fill:#1a171b"
     id="path54" />
  <path
     d="m 932,87.2 c 0,-9.1 -2.8,-18.5 -12.5,-18.5 -9.7,0 -12.1,9.8 -12.8,18.5 z m -25.8,7.5 c 0,5.3 -0.1,23.6 14.3,23.6 8.7,0 11,-7.6 12.4,-12.3 l 8.5,2 c -3.8,14.2 -12.6,17.8 -21.4,17.8 -17.5,0 -23.4,-15.4 -23.4,-31.4 0,-22.9 11,-33.2 23.9,-33.2 12.9,0 21.4,10.5 21.8,33.5 z"
     style="fill:#1a171b"
     id="path56" />
</svg>
